<svg width="129" height="32" viewBox="0 0 129 32" fill="none" xmlns="http://www.w3.org/2000/svg">
<path d="M2.6665 12.6666C2.66653 11.1829 3.11663 9.73408 3.95735 8.51152C4.79807 7.28896 5.98986 6.35018 7.37532 5.81917C8.76077 5.28816 10.2747 5.1899 11.7172 5.53736C13.1597 5.88483 14.4628 6.66168 15.4545 7.76531C15.5244 7.83999 15.6088 7.89953 15.7026 7.94024C15.7964 7.98095 15.8976 8.00195 15.9998 8.00195C16.1021 8.00195 16.2033 7.98095 16.2971 7.94024C16.3909 7.89953 16.4753 7.83999 16.5452 7.76531C17.5338 6.65451 18.8372 5.87113 20.282 5.51944C21.7268 5.16775 23.2445 5.26443 24.633 5.79662C26.0215 6.3288 27.215 7.27124 28.0547 8.49851C28.8943 9.72577 29.3403 11.1797 29.3332 12.6666C29.3332 15.72 27.3332 18 25.3332 20L18.0105 27.084C17.7621 27.3693 17.4557 27.5985 17.1119 27.7564C16.7681 27.9142 16.3946 27.9971 16.0162 27.9995C15.6379 28.0019 15.2634 27.9238 14.9176 27.7703C14.5717 27.6168 14.2625 27.3915 14.0105 27.1093L6.6665 20C4.6665 18 2.6665 15.7333 2.6665 12.6666Z" stroke="#155DFC" stroke-width="2.66667" stroke-linecap="round" stroke-linejoin="round"/>
<path d="M49.6348 23L44.0879 8.68359H46.1387L49.8594 19.084C50.1589 19.9173 50.4095 20.6986 50.6113 21.4277C50.8327 20.6465 51.0898 19.8652 51.3828 19.084L55.25 8.68359H57.1836L51.5781 23H49.6348ZM56.8906 17.8145C56.8906 15.8939 57.4245 14.4714 58.4922 13.5469C59.3841 12.7786 60.4714 12.3945 61.7539 12.3945C63.1797 12.3945 64.3451 12.8633 65.25 13.8008C66.1549 14.7318 66.6074 16.0208 66.6074 17.668C66.6074 19.0026 66.4056 20.054 66.002 20.8223C65.6048 21.584 65.0221 22.1764 64.2539 22.5996C63.4922 23.0228 62.6589 23.2344 61.7539 23.2344C60.3021 23.2344 59.127 22.7689 58.2285 21.8379C57.3366 20.9069 56.8906 19.5658 56.8906 17.8145ZM58.6973 17.8145C58.6973 19.1426 58.987 20.1387 59.5664 20.8027C60.1458 21.4603 60.875 21.7891 61.7539 21.7891C62.6263 21.7891 63.3522 21.457 63.9316 20.793C64.5111 20.1289 64.8008 19.1165 64.8008 17.7559C64.8008 16.4733 64.5078 15.5033 63.9219 14.8457C63.3424 14.1816 62.6198 13.8496 61.7539 13.8496C60.875 13.8496 60.1458 14.1784 59.5664 14.8359C58.987 15.4935 58.6973 16.4863 58.6973 17.8145ZM68.6387 23V8.68359H70.3965V23H68.6387ZM79.9277 23V21.4766C79.1204 22.6484 78.0234 23.2344 76.6367 23.2344C76.0247 23.2344 75.4518 23.1172 74.918 22.8828C74.3906 22.6484 73.9967 22.3555 73.7363 22.0039C73.4824 21.6458 73.3034 21.2096 73.1992 20.6953C73.1276 20.3503 73.0918 19.8034 73.0918 19.0547V12.6289H74.8496V18.3809C74.8496 19.2988 74.8854 19.9173 74.957 20.2363C75.0677 20.6986 75.3021 21.0632 75.6602 21.3301C76.0182 21.5905 76.4609 21.7207 76.9883 21.7207C77.5156 21.7207 78.0104 21.5872 78.4727 21.3203C78.9349 21.0469 79.2604 20.679 79.4492 20.2168C79.6445 19.748 79.7422 19.071 79.7422 18.1855V12.6289H81.5V23H79.9277ZM84.2637 23V12.6289H85.8457V14.1035C86.6074 12.9642 87.7077 12.3945 89.1465 12.3945C89.7715 12.3945 90.3444 12.5085 90.8652 12.7363C91.3926 12.9577 91.7865 13.2507 92.0469 13.6152C92.3073 13.9798 92.4896 14.4128 92.5938 14.9141C92.6589 15.2396 92.6914 15.8092 92.6914 16.623V23H90.9336V16.6914C90.9336 15.9753 90.8652 15.4414 90.7285 15.0898C90.5918 14.7318 90.3477 14.4486 89.9961 14.2402C89.651 14.0254 89.2441 13.918 88.7754 13.918C88.0267 13.918 87.3789 14.1556 86.832 14.6309C86.2917 15.1061 86.0215 16.0078 86.0215 17.3359V23H84.2637ZM99.2344 21.4277L99.4883 22.9805C98.9935 23.0846 98.5508 23.1367 98.1602 23.1367C97.5221 23.1367 97.0273 23.0358 96.6758 22.834C96.3242 22.6322 96.0768 22.3685 95.9336 22.043C95.7904 21.7109 95.7188 21.0176 95.7188 19.9629V13.9961H94.4297V12.6289H95.7188V10.0605L97.4668 9.00586V12.6289H99.2344V13.9961H97.4668V20.0605C97.4668 20.5618 97.4961 20.8841 97.5547 21.0273C97.6198 21.1706 97.7207 21.2845 97.8574 21.3691C98.0007 21.4538 98.2025 21.4961 98.4629 21.4961C98.6582 21.4961 98.9154 21.4733 99.2344 21.4277ZM108.062 19.6602L109.879 19.8848C109.592 20.946 109.062 21.7695 108.287 22.3555C107.512 22.9414 106.523 23.2344 105.318 23.2344C103.801 23.2344 102.597 22.7689 101.705 21.8379C100.82 20.9004 100.377 19.5885 100.377 17.9023C100.377 16.1576 100.826 14.8034 101.725 13.8398C102.623 12.8763 103.788 12.3945 105.221 12.3945C106.607 12.3945 107.74 12.8665 108.619 13.8105C109.498 14.7546 109.938 16.0827 109.938 17.7949C109.938 17.8991 109.934 18.0553 109.928 18.2637H102.193C102.258 19.403 102.581 20.2754 103.16 20.8809C103.74 21.4863 104.462 21.7891 105.328 21.7891C105.973 21.7891 106.523 21.6198 106.979 21.2812C107.434 20.9427 107.796 20.4023 108.062 19.6602ZM102.291 16.8184H108.082C108.004 15.946 107.783 15.2917 107.418 14.8555C106.858 14.1784 106.132 13.8398 105.24 13.8398C104.433 13.8398 103.753 14.11 103.199 14.6504C102.652 15.1908 102.35 15.9134 102.291 16.8184ZM112.076 23V12.6289H113.658V14.2012C114.062 13.4655 114.433 12.9805 114.771 12.7461C115.117 12.5117 115.494 12.3945 115.904 12.3945C116.497 12.3945 117.099 12.5833 117.711 12.9609L117.105 14.5918C116.676 14.3379 116.246 14.2109 115.816 14.2109C115.432 14.2109 115.087 14.3281 114.781 14.5625C114.475 14.7904 114.257 15.1094 114.127 15.5195C113.932 16.1445 113.834 16.8281 113.834 17.5703V23H112.076ZM125.523 21.7207C124.872 22.2741 124.244 22.6647 123.639 22.8926C123.04 23.1204 122.395 23.2344 121.705 23.2344C120.566 23.2344 119.69 22.9577 119.078 22.4043C118.466 21.8444 118.16 21.1315 118.16 20.2656C118.16 19.7578 118.274 19.2956 118.502 18.8789C118.736 18.4557 119.039 18.1172 119.41 17.8633C119.788 17.6094 120.211 17.4173 120.68 17.2871C121.025 17.196 121.546 17.1081 122.242 17.0234C123.661 16.8542 124.706 16.6523 125.377 16.418C125.383 16.1771 125.387 16.0241 125.387 15.959C125.387 15.2428 125.221 14.7383 124.889 14.4453C124.439 14.0482 123.772 13.8496 122.887 13.8496C122.06 13.8496 121.448 13.9961 121.051 14.2891C120.66 14.5755 120.37 15.0866 120.182 15.8223L118.463 15.5879C118.619 14.8522 118.876 14.2598 119.234 13.8105C119.592 13.3548 120.11 13.0065 120.787 12.7656C121.464 12.5182 122.249 12.3945 123.141 12.3945C124.026 12.3945 124.745 12.4987 125.299 12.707C125.852 12.9154 126.259 13.179 126.52 13.498C126.78 13.8105 126.962 14.2077 127.066 14.6895C127.125 14.9889 127.154 15.5293 127.154 16.3105V18.6543C127.154 20.2884 127.19 21.3236 127.262 21.7598C127.34 22.1895 127.49 22.6029 127.711 23H125.875C125.693 22.6354 125.576 22.209 125.523 21.7207ZM125.377 17.7949C124.739 18.0553 123.782 18.2767 122.506 18.459C121.783 18.5632 121.272 18.6803 120.973 18.8105C120.673 18.9408 120.442 19.1328 120.279 19.3867C120.117 19.6341 120.035 19.9108 120.035 20.2168C120.035 20.6855 120.211 21.0762 120.562 21.3887C120.921 21.7012 121.441 21.8574 122.125 21.8574C122.802 21.8574 123.404 21.7109 123.932 21.418C124.459 21.1185 124.846 20.7116 125.094 20.1973C125.283 19.8001 125.377 19.2142 125.377 18.4395V17.7949Z" fill="#101828"/>
</svg>
